<?xml version="1.0" encoding="UTF-8" standalone="no"?>
<svg
   width="1767.1541"
   height="760.58294"
   version="1.1"
   id="svg2"
   sodipodi:docname="Newest_Super_Mario_Bros._Wii_logo.svg"
   inkscape:version="1.3.2 (091e20e, 2023-11-25, custom)"
   xmlns:inkscape="http://www.inkscape.org/namespaces/inkscape"
   xmlns:sodipodi="http://sodipodi.sourceforge.net/DTD/sodipodi-0.dtd"
   xmlns="http://www.w3.org/2000/svg"
   xmlns:svg="http://www.w3.org/2000/svg">
  <defs
     id="defs2">
    <inkscape:path-effect
       effect="powerstroke"
       id="path-effect83"
       is_visible="true"
       lpeversion="1.3"
       scale_width="1"
       interpolator_type="CubicBezierJohan"
       interpolator_beta="0.2"
       start_linecap_type="zerowidth"
       end_linecap_type="zerowidth"
       offset_points="0,15.87"
       linejoin_type="extrp_arc"
       miter_limit="4"
       not_jump="false"
       sort_points="true"
       message="&lt;b&gt;Ctrl + click&lt;/b&gt; on existing node and move it" />
    <inkscape:path-effect
       effect="simplify"
       id="path-effect82"
       is_visible="true"
       lpeversion="1.3"
       threshold="17.2414"
       steps="1"
       smooth_angles="360"
       helper_size="0"
       simplify_individual_paths="false"
       simplify_just_coalesce="false" />
    <inkscape:path-effect
       effect="simplify"
       id="path-effect75"
       is_visible="true"
       lpeversion="1.3"
       threshold="17.2414"
       steps="1"
       smooth_angles="360"
       helper_size="0"
       simplify_individual_paths="false"
       simplify_just_coalesce="false" />
    <inkscape:path-effect
       effect="simplify"
       id="path-effect69"
       is_visible="true"
       lpeversion="1.3"
       threshold="17.2414"
       steps="1"
       smooth_angles="360"
       helper_size="0"
       simplify_individual_paths="false"
       simplify_just_coalesce="false" />
    <inkscape:path-effect
       effect="simplify"
       id="path-effect41"
       is_visible="true"
       lpeversion="1.3"
       threshold="17.2414"
       steps="1"
       smooth_angles="360"
       helper_size="0"
       simplify_individual_paths="false"
       simplify_just_coalesce="false" />
    <inkscape:path-effect
       effect="simplify"
       id="path-effect39"
       is_visible="true"
       lpeversion="1.3"
       threshold="17.2414"
       steps="1"
       smooth_angles="360"
       helper_size="0"
       simplify_individual_paths="false"
       simplify_just_coalesce="false" />
    <inkscape:path-effect
       effect="simplify"
       id="path-effect38"
       is_visible="true"
       lpeversion="1.3"
       threshold="17.2414"
       steps="1"
       smooth_angles="360"
       helper_size="0"
       simplify_individual_paths="false"
       simplify_just_coalesce="false" />
    <inkscape:path-effect
       effect="spiro"
       id="path-effect31"
       is_visible="true"
       lpeversion="1" />
    <inkscape:path-effect
       effect="simplify"
       id="path-effect30"
       is_visible="true"
       lpeversion="1.3"
       threshold="17.2414"
       steps="1"
       smooth_angles="360"
       helper_size="0"
       simplify_individual_paths="false"
       simplify_just_coalesce="false" />
    <inkscape:path-effect
       effect="spiro"
       id="path-effect29"
       is_visible="true"
       lpeversion="1" />
    <inkscape:path-effect
       effect="simplify"
       id="path-effect28"
       is_visible="true"
       lpeversion="1.3"
       threshold="17.2414"
       steps="1"
       smooth_angles="360"
       helper_size="0"
       simplify_individual_paths="false"
       simplify_just_coalesce="false" />
    <inkscape:path-effect
       effect="spiro"
       id="path-effect27"
       is_visible="true"
       lpeversion="1" />
    <inkscape:path-effect
       effect="simplify"
       id="path-effect26"
       is_visible="true"
       lpeversion="1.3"
       threshold="17.2414"
       steps="1"
       smooth_angles="360"
       helper_size="0"
       simplify_individual_paths="false"
       simplify_just_coalesce="false" />
    <inkscape:path-effect
       effect="spiro"
       id="path-effect25"
       is_visible="true"
       lpeversion="1" />
    <inkscape:path-effect
       effect="simplify"
       id="path-effect24"
       is_visible="true"
       lpeversion="1.3"
       threshold="17.2414"
       steps="1"
       smooth_angles="360"
       helper_size="0"
       simplify_individual_paths="false"
       simplify_just_coalesce="false" />
    <inkscape:path-effect
       effect="spiro"
       id="path-effect23"
       is_visible="true"
       lpeversion="1" />
    <inkscape:path-effect
       effect="simplify"
       id="path-effect19"
       is_visible="true"
       lpeversion="1.3"
       threshold="17.2414"
       steps="1"
       smooth_angles="360"
       helper_size="0"
       simplify_individual_paths="false"
       simplify_just_coalesce="false" />
    <inkscape:path-effect
       effect="spiro"
       id="path-effect18"
       is_visible="true"
       lpeversion="1" />
    <inkscape:path-effect
       effect="simplify"
       id="path-effect17"
       is_visible="true"
       lpeversion="1.3"
       threshold="17.2414"
       steps="1"
       smooth_angles="360"
       helper_size="0"
       simplify_individual_paths="false"
       simplify_just_coalesce="false" />
    <inkscape:path-effect
       effect="spiro"
       id="path-effect16"
       is_visible="true"
       lpeversion="1" />
    <inkscape:path-effect
       effect="simplify"
       id="path-effect15"
       is_visible="true"
       lpeversion="1.3"
       threshold="17.2414"
       steps="1"
       smooth_angles="360"
       helper_size="0"
       simplify_individual_paths="false"
       simplify_just_coalesce="false" />
    <inkscape:path-effect
       effect="spiro"
       id="path-effect6"
       is_visible="true"
       lpeversion="1" />
    <inkscape:path-effect
       effect="simplify"
       id="path-effect5"
       is_visible="true"
       lpeversion="1.3"
       threshold="17.2414"
       steps="1"
       smooth_angles="360"
       helper_size="0"
       simplify_individual_paths="false"
       simplify_just_coalesce="false" />
    <inkscape:path-effect
       effect="fillet_chamfer"
       id="path-effect4"
       is_visible="true"
       lpeversion="1"
       nodesatellites_param="F,0,0,1,0,3.217863,0,1 @ F,0,0,1,0,1.0828507,0,1 @ F,0,0,1,0,1.7495022,0,1 @ F,0,0,1,0,1.6879246,0,1 @ F,0,1,1,0,1.6879246,0,1 @ F,0,0,1,0,0,0,1 @ F,0,0,1,0,3.4391189,0,1"
       radius="0"
       unit="px"
       method="auto"
       mode="F"
       chamfer_steps="1"
       flexible="false"
       use_knot_distance="true"
       apply_no_radius="true"
       apply_with_radius="true"
       only_selected="false"
       hide_knots="false" />
    <inkscape:path-effect
       effect="spiro"
       id="path-effect3"
       is_visible="true"
       lpeversion="1" />
    <inkscape:path-effect
       effect="simplify"
       id="path-effect2"
       is_visible="true"
       lpeversion="1.3"
       threshold="17.2414"
       steps="1"
       smooth_angles="360"
       helper_size="0"
       simplify_individual_paths="false"
       simplify_just_coalesce="false" />
    <inkscape:path-effect
       effect="fillet_chamfer"
       id="path-effect22"
       is_visible="true"
       lpeversion="1"
       nodesatellites_param="F,0,0,1,0,0,0,1 @ F,0,0,1,0,0,0,1 @ F,0,0,1,0,8.6971624,0,1 @ F,0,0,1,0,0,0,1 @ F,0,0,1,0,0,0,1 @ F,0,0,1,0,0,0,1 @ F,0,0,1,0,0,0,1 @ F,0,0,1,0,0,0,1 @ F,0,0,1,0,0,0,1 @ F,0,0,1,0,0,0,1 @ F,0,0,1,0,1.6009636,0,1 @ F,0,0,1,0,0,0,1 @ F,0,0,1,0,0,0,1 @ F,0,0,1,0,0,0,1 @ F,0,0,1,0,0,0,1 @ F,0,0,1,0,0,0,1 @ F,0,0,1,0,0,0,1 @ F,0,0,1,0,0,0,1 @ F,0,0,1,0,0,0,1 @ F,0,0,1,0,0,0,1 @ F,0,0,1,0,0,0,1"
       radius="0"
       unit="px"
       method="auto"
       mode="F"
       chamfer_steps="1"
       flexible="false"
       use_knot_distance="true"
       apply_no_radius="true"
       apply_with_radius="true"
       only_selected="false"
       hide_knots="false" />
    <inkscape:path-effect
       effect="fillet_chamfer"
       id="path-effect21"
       is_visible="true"
       lpeversion="1"
       nodesatellites_param="F,0,0,1,0,0,0,1 @ F,0,0,1,0,0,0,1 @ F,0,0,1,0,0,0,1 @ F,0,0,1,0,0,0,1 | F,0,0,1,0,0,0,1 @ F,0,0,1,0,0,0,1 @ F,0,0,1,0,0,0,1 @ F,0,0,1,0,0,0,1"
       radius="0"
       unit="px"
       method="auto"
       mode="F"
       chamfer_steps="1"
       flexible="false"
       use_knot_distance="true"
       apply_no_radius="true"
       apply_with_radius="true"
       only_selected="false"
       hide_knots="false" />
    <inkscape:path-effect
       effect="fillet_chamfer"
       id="path-effect20"
       is_visible="true"
       lpeversion="1"
       nodesatellites_param="F,0,0,1,0,0,0,1 @ F,0,0,1,0,0,0,1 @ F,0,0,1,0,8.911328,0,1 @ F,0,0,1,0,0,0,1 @ F,0,0,1,0,0,0,1 @ F,0,0,1,0,0,0,1 @ F,0,0,1,0,0,0,1 @ F,0,0,1,0,0,0,1 @ F,0,0,1,0,0,0,1 @ F,0,0,1,0,0,0,1 @ F,0,0,1,0,0,0,1 @ F,0,0,1,0,0,0,1 @ F,0,0,1,0,0,0,1 @ F,0,0,1,0,0,0,1 @ F,0,0,1,0,0,0,1 @ F,0,0,1,0,0,0,1 @ F,0,0,1,0,0,0,1 @ F,0,0,1,0,0,0,1 @ F,0,0,1,0,0,0,1 @ F,0,0,1,0,9.9006,0,1 @ F,0,0,1,0,0,0,1"
       radius="0"
       unit="px"
       method="auto"
       mode="F"
       chamfer_steps="1"
       flexible="false"
       use_knot_distance="true"
       apply_no_radius="true"
       apply_with_radius="true"
       only_selected="false"
       hide_knots="false" />
    <inkscape:path-effect
       effect="fillet_chamfer"
       id="path-effect21-5"
       is_visible="true"
       lpeversion="1"
       nodesatellites_param="F,0,0,1,0,0,0,1 @ F,0,0,1,0,0,0,1 @ F,0,0,1,0,0,0,1 @ F,0,0,1,0,0,0,1 | F,0,0,1,0,0,0,1 @ F,0,0,1,0,0,0,1 @ F,0,0,1,0,0,0,1 @ F,0,0,1,0,0,0,1"
       radius="0"
       unit="px"
       method="auto"
       mode="F"
       chamfer_steps="1"
       flexible="false"
       use_knot_distance="true"
       apply_no_radius="true"
       apply_with_radius="true"
       only_selected="false"
       hide_knots="false" />
    <inkscape:path-effect
       effect="fill_between_many"
       method="bsplinespiro"
       autoreverse="false"
       close="false"
       join="false"
       linkedpaths="#path82,0,1"
       id="path-effect84" />
  </defs>
  <sodipodi:namedview
     id="namedview2"
     pagecolor="#ffffff"
     bordercolor="#000000"
     borderopacity="0.25"
     inkscape:showpageshadow="2"
     inkscape:pageopacity="0.0"
     inkscape:pagecheckerboard="0"
     inkscape:deskcolor="#d1d1d1"
     inkscape:zoom="0.70710678"
     inkscape:cx="859.13474"
     inkscape:cy="393.85848"
     inkscape:window-width="1920"
     inkscape:window-height="1017"
     inkscape:window-x="-8"
     inkscape:window-y="-8"
     inkscape:window-maximized="1"
     inkscape:current-layer="g2" />
  <metadata
     id="metadata34">image/svg+xml</metadata>
  <g
     id="g1"
     style="display:inline">
    <title
       id="title1">background</title>
    <rect
       fill="none"
       id="canvas_background"
       height="602"
       width="802"
       y="-1"
       x="-1" />
  </g>
  <g
     id="g2"
     style="display:inline">
    <title
       id="title2">Layer 1</title>
    <path
       fill="#000000"
       fill-rule="nonzero"
       d="m 1598.9359,332.37695 -315.6758,0.007 v -20.04773 c 0,-9.7515 -3.2059,-19.18445 -9.0653,-27.35782 5.8594,-10.0274 9.0297,-21.45596 9.0297,-33.45067 0,-18.21494 -7.3172,-34.71736 -19.1349,-46.66252 l -52.5994,-52.59969 c -11.7612,-11.88853 -27.9879,-19.25519 -45.8633,-19.25519 H 1026.227 c -25.7159,-0.007 -42.87673,11.75407 -52.35189,27.57008 l -8.11707,-8.12384 C 953.36735,140.45484 936.23485,133.01035 917.3264,133.01035 H 716.58733 v 17.07562 c -12.92908,-12.48297 -31.2923,-20.30251 -51.65173,-20.30251 -36.01208,0 -65.81152,24.44226 -70.22729,55.9469 l -28.31281,-9.3127 40.15887,-38.90665 -51.7785,-8.08846 50.67462,-67.99817 -86.96295,30.58467 0.21906,-45.25428 -52.81171,26.44492 -15.80212,-64.43163 -45.05585,66.42721 -38.55283,-24.881 -20.72003,44.73769 -67.51727,-26.00617 17.86111,61.16227 -55.51491,9.30562 20.91078,37.72487 -85.74577,27.78238 71.74844,23.60017 -40.15891,38.88542 51.80684,8.08847 -40.43517,54.22025 c -3.29767,-0.5025 -6.65193,-0.84918 -10.08376,-0.84918 -12.93587,0 -25.20651,3.7435 -35.8145,10.61469 -10.60062,-6.87119 -22.87128,-10.61469 -35.80714,-10.61469 -36.98183,0 -67.07116,30.68369 -67.07116,68.40149 v 207.56818 l 52.60677,52.61395 h 514.0592 v -20.05493 c 12.99249,14.37952 32.09167,23.47278 53.34271,23.47278 22.77899,0 43.0603,-10.45197 56.01764,-26.63599 l 23.23193,23.21814 h 77.45947 v -0.3114 c 12.79431,-1.09692 24.61212,-5.33575 34.52655,-11.85321 l 12.15747,12.16461 h 141.62192 v -20.04785 c 12.9857,14.37244 32.0781,23.47284 53.3359,23.47284 25.8009,0 48.4102,-13.39581 60.7872,-33.3587 l 12.4123,12.41217 c 12.8934,12.90051 30.9593,20.94653 50.9509,20.94653 16.0703,0 30.9102,-5.20123 42.7987,-13.9549 l 10.5365,10.52991 h 77.4596 v -18.84485 l 1.9531,1.95313 c 12.1715,12.53247 29.042,20.31671 47.6605,20.31671 12.9428,0 25.2066,-3.75049 35.814,-10.62183 10.6007,6.87134 22.8712,10.62183 35.8071,10.62183 14.8466,0 28.5966,-4.95361 39.7134,-13.31799 l 9.893,9.89301 h 137.4542 V 384.99076 l -52.6068,-52.6138 z"
       id="path27283" />
    <path
       fill="#ffffff"
       fill-rule="nonzero"
       d="m 533.12402,220.18719 62.54218,-20.2742 -54.10699,-17.79036 36.82617,-35.67268 -47.2428,-7.38786 37.90918,-50.85889 -63.83746,22.44669 0.21228,-42.50152 -48.40335,24.22997 -12.66693,-51.66559 -35.6441,52.53601 -36.63538,-23.63554 -19.53854,42.17599 -54.17719,-20.8757 14.55609,49.84694 -51.75021,8.66872 19.62286,35.41794 -62.54897,20.2742 54.11378,17.79034 -36.81938,35.65857 47.2643,7.36664 -37.93745,50.8801 63.83748,-22.43253 -0.20493,42.45901 48.38861,-24.1875 12.68167,51.63022 35.6441,-52.52182 36.64215,23.62842 19.53116,-42.12643 54.17776,20.86862 -14.57758,-49.84692 51.75757,-8.67583 -19.61609,-35.425 z"
       id="path27287" />
    <path
       fill="#ce000c"
       fill-rule="nonzero"
       d="m 372.68369,346.91626 -10.9686,-44.67401 -45.99731,22.97031 0.19815,-40.95172 -51.25488,17.98853 30.99512,-41.56039 -44.7943,-6.99159 35.00719,-33.8894 -44.52538,-14.64131 49.946,-16.18398 -18.92938,-34.15833 49.70541,-8.33612 -12.75189,-43.66914 46.91727,18.07341 18.88693,-40.78193 35.59485,22.96328 30.52127,-44.98538 10.96124,44.72355 45.99731,-23.01989 -0.1908,40.99422 51.25488,-18.02386 -30.97363,41.54619 44.76605,7.00574 -35.00781,33.91064 44.51862,14.64838 -49.92505,16.17691 18.91577,34.17245 -49.71954,8.32909 12.78015,43.69037 -46.92459,-18.08759 -18.88013,40.74658 -35.60165,-22.96329 -30.52127,44.9783 z"
       id="path27291"
       style="fill:#ff6c15;fill-opacity:1" />
    <path
       fill="#ffffff"
       fill-rule="nonzero"
       d="m 1230.6477,587.47504 h 42.523 v -47.52582 h -42.523 z"
       id="path27305" />
    <path
       fill="#ffffff"
       fill-rule="nonzero"
       d="m 840.7439,442.52496 h -0.007 v -45.15518 c 0,-26.25391 -23.88348,-47.51883 -53.34271,-47.51883 h -53.34271 v 237.62213 h 42.52979 V 397.36267 l 21.62585,0.007 v 47.52582 h -10.81293 v 47.52591 h 10.81293 v 47.5329 h -10.81293 v 47.51868 c 29.45923,0 53.34271,-21.27191 53.34271,-47.52582 h -0.0991 l 0.0991,-0.007 v -45.13403 h 0.007 c 0,-17.54968 -13.29645,-26.13348 -13.29645,-26.13348 0,0 13.29645,-8.60498 13.29645,-26.14771"
       id="path27317" />
    <path
       fill="#ffffff"
       fill-rule="nonzero"
       d="m 1035.6971,346.43515 c -29.4598,0 -53.35006,22.80051 -53.35006,50.93671 v 142.57761 c 0,28.12909 23.89026,50.93671 53.35006,50.93671 29.4524,0 53.3355,-22.80762 53.3355,-50.93671 V 397.37186 c 0,-28.1362 -23.8831,-50.93671 -53.3355,-50.93671 m 10.8056,193.51431 h -21.6184 V 397.37182 h 21.6184 z"
       id="path27321" />
    <path
       fill="#ffffff"
       fill-rule="nonzero"
       d="m 964.89587,442.52496 h -0.0141 v -45.15518 c 0,-26.25391 -23.88348,-47.51883 -53.34271,-47.51883 h -53.33594 v 237.62213 h 42.52979 v -190.1033 h 21.61902 v 47.52579 H 911.5249 v 47.52588 h 10.82703 v 95.05164 h 42.52985 v -92.66693 h 0.0141 c 0,-17.5426 -13.29706,-26.13348 -13.29706,-26.13348 0,0 13.29706,-8.60501 13.29706,-26.14771"
       id="path27325" />
    <path
       fill="#ffffff"
       fill-rule="nonzero"
       d="m 1159.8401,346.43515 c -29.4592,0 -53.3427,22.80051 -53.3427,50.93671 v 41.52499 c 0,43.4498 64.1556,39.961 64.1556,70.59528 v 30.45734 h -21.6258 v -47.53302 h -42.5298 v 47.53302 c 0,28.12909 23.8835,50.93671 53.3427,50.93671 29.4598,0 53.3361,-22.80762 53.3361,-50.93671 v -41.6665 c 0,-43.44272 -64.149,-39.81961 -64.149,-70.46793 v -30.44318 h 21.6258 v 47.52588 h 42.523 v -47.52588 c 0,-28.1362 -23.8761,-50.93671 -53.3359,-50.93671"
       id="path27329" />
    <path
       fill="#ffffff"
       fill-rule="nonzero"
       d="m 1478.9415,397.37177 h 42.5298 v -47.52591 h -42.5298 z"
       id="path27331" />
    <path
       fill="#ffffff"
       fill-rule="nonzero"
       d="m 1478.9415,587.47504 h 42.5298 V 414.83655 h -42.5298 z"
       id="path27333" />
    <path
       fill="#ffffff"
       fill-rule="nonzero"
       d="m 1538.9362,397.37177 h 42.5224 v -47.52591 h -42.5224 z"
       id="path27335" />
    <path
       fill="#ffffff"
       fill-rule="nonzero"
       d="m 1538.9362,587.47504 h 42.5224 V 414.83655 h -42.5224 z"
       id="path27337" />
    <path
       fill="#ffffff"
       fill-rule="nonzero"
       d="m 1418.9502,539.94867 h -21.619 V 349.85236 h -42.5366 v 190.09631 h -21.6189 V 349.85236 h -42.5299 v 190.09631 c 0,28.13617 22.2135,50.94379 49.5996,50.94379 14.0748,0 26.7843,-6.02209 35.8213,-15.6886 9.022,9.6665 21.7248,15.6886 35.7998,15.6886 27.4001,0 49.6136,-22.80762 49.6136,-50.94379 V 349.85236 h -42.5299 z"
       id="path27349" />
    <path
       fill="#ffffff"
       fill-rule="nonzero"
       d="m 363.82843,396.20346 -10.88367,-44.3273 c -7.19711,-3.45331 -15.29263,-5.4418 -23.89767,-5.4418 -29.45923,0 -53.34271,22.80759 -53.34271,50.93671 v 190.09628 h 42.52982 v -47.5329 h 21.62582 v 47.5329 h 42.52982 V 397.37107 c 0,-7.60721 -1.79742,-14.78992 -4.91788,-21.272 l -13.64352,20.1044 z m -23.96841,96.21219 H 318.2342 v -95.04459 h 21.62582 z"
       id="path27353" />
    <path
       fill="#ffffff"
       fill-rule="nonzero"
       d="m 917.32416,150.48091 h -59.12451 v 145.3091 h 43.88171 V 193.82456 h 15.2428 v 53.5338 c 28.11469,0 50.90839,-21.68951 50.90839,-48.4458 0,-26.74213 -22.7937,-48.43164 -50.90839,-48.43164"
       id="path27357" />
    <path
       fill="#ffffff"
       fill-rule="nonzero"
       d="m 787.39435,299.02396 c 29.45923,0 53.34271,-20.85449 53.34271,-46.58467 V 150.48092 H 795.02283 V 252.43929 H 779.76587 V 150.48092 h -45.71423 v 101.95837 c 0,25.73018 23.88293,46.58467 53.34271,46.58467"
       id="path27361" />
    <path
       fill="#ffffff"
       fill-rule="nonzero"
       d="m 1040.4028,241.0728 h 48.6371 v -35.88498 h -48.6371 z"
       id="path27363" />
    <path
       fill="#ffffff"
       fill-rule="nonzero"
       d="m 1026.23,150.46677 c -30.96682,0 -43.87441,21.77441 -43.88125,43.35779 v 58.60057 c 0,21.59044 12.91443,43.36485 43.88125,43.36485 h 62.8043 V 255.28404 H 1026.23 v -64.30426 h 62.8043 V 150.48091 H 1026.23 v -0.0142 z"
       id="path27375" />
    <path
       fill="#ffffff"
       fill-rule="nonzero"
       d="m 1198.6279,233.7693 c 8.9589,-8.80318 14.5285,-21.16585 14.5285,-34.85182 0,-26.74919 -21.2794,-48.43871 -47.5332,-48.43871 h -59.124 v 145.30907 h 43.8669 V 193.82242 h 15.2711 v 101.96542 h 47.5401 v -35.78592 c 0,-0.092 0.01,-0.17691 0.01,-0.27597 0,-10.1902 -5.5838,-19.39674 -14.5568,-25.95665"
       id="path27379" />
    <path
       fill="#ffffff"
       fill-rule="nonzero"
       d="m 524.00153,587.47504 h 42.52985 v -237.6221 h -42.52985 z"
       id="path27381" />
    <path
       fill="#ffffff"
       fill-rule="nonzero"
       d="m 637.33783,346.43515 c -29.45978,0 -53.34271,22.80051 -53.34271,50.93671 v 142.57761 c 0,28.12909 23.88293,50.93671 53.34271,50.93671 29.45923,0 53.34271,-22.80762 53.34271,-50.93671 V 397.37186 c 0,-28.1362 -23.88348,-50.93671 -53.34271,-50.93671 m 10.81293,193.51431 H 626.52491 V 397.37182 h 21.62585 z"
       id="path27393" />
    <path
       fill="#ffffff"
       fill-rule="nonzero"
       d="m 506.54858,442.52496 h -0.0141 v -45.15518 c 0,-26.25391 -23.88293,-47.51883 -53.34274,-47.51883 h -53.33536 v 237.62213 h 42.52246 v -190.1033 h 21.62582 v 47.52579 H 453.1776 v 47.52588 h 10.82706 v 95.05164 h 42.52982 v -92.66693 h 0.0141 c 0,-17.5426 -13.29645,-26.13348 -13.29645,-26.13348 0,0 13.29645,-8.60501 13.29645,-26.14771"
       id="path27397" />
    <path
       fill="#ffffff"
       fill-rule="nonzero"
       d="m 718.27155,193.82516 c 0,-25.72311 -23.88293,-46.57759 -53.33539,-46.57759 -29.45978,0 -53.3501,20.85448 -53.3501,46.57759 h 0.007 c 0,25.50374 18.65369,44.40511 45.53705,44.40511 h 15.604 v 14.21671 h -61.14844 c 0,25.72313 23.89032,46.57762 53.3501,46.57762 29.45245,0 53.33539,-20.85449 53.33539,-46.57762 0,-25.50374 -18.65369,-44.40511 -45.53705,-44.40511 h -15.604 v -14.21671 h 61.14105 z"
       id="path27401" />
    <path
       fill="#ffffff"
       fill-rule="nonzero"
       d="m 208.63547,346.43515 c -14.07489,0 -26.7843,6.01498 -35.80714,15.68161 -9.02963,-9.66663 -21.73903,-15.68161 -35.81393,-15.68161 -27.39345,0 -49.60633,22.80051 -49.60633,50.93671 v 190.09628 h 42.52982 V 397.37186 h 21.62582 v 190.09628 h 42.52982 V 397.37186 h 21.62582 V 587.46814 H 258.2418 V 397.37186 c 0,-28.1362 -22.20607,-50.93671 -49.60632,-50.93671"
       id="path27405" />
    <path
       fill="#ffffff"
       fill-rule="nonzero"
       d="m 1237.5317,371.52194 h 3.793 v -18.39178 h 6.8926 v -3.27652 h -17.5498 v 3.27652 h 6.8642 z"
       id="path27409" />
    <path
       fill="#ffffff"
       fill-rule="nonzero"
       d="m 1262.0646,366.81757 h -0.057 l -5.9868,-16.9624 h -5.3357 v 21.6683 h 3.6091 v -16.7218 h 0.057 l 6.015,16.7218 h 3.121 l 6.0151,-16.7218 h 0.057 v 16.7218 h 3.6089 v -21.6683 h -5.279 l -5.8243,16.9624 z"
       id="path27413" />
    <path
       id="path22-7"
       style="opacity:0.98;fill:#d83818;fill-opacity:1;fill-rule:nonzero;stroke-width:0.643698"
       d="m 364.66406,206.44336 -1.71875,6.38672 -10.18164,1.3418 0.0918,-0.35157 1.62695,-6.04101 z" />
    <path
       id="path74"
       style="opacity:0.98;fill:#d83818;fill-opacity:1;fill-rule:nonzero;stroke-width:0.643698"
       d="m 429.41406,186.26758 c -0.61176,0.0844 -10.10545,1.3389 -10.71289,1.4082 -0.18883,0.69824 -7.05664,26.29297 -7.05664,26.29297 -1.94864,7.68535 -6.71289,13.08789 -6.71289,13.08789 0,0 -2.03719,-4.41683 0.0703,-12.20117 0,0 7.01863,-26.14635 7.06055,-26.29492 -0.60773,0.0844 -10.11352,1.3132 -10.71289,1.40234 -0.0375,0.14854 -7.04883,26.30859 -7.04883,26.30859 -2.02803,7.00196 -6.7168,13.04883 -6.7168,13.04883 0,0 -1.5791,-5.97217 0.0762,-12.17187 0,0 6.8215,-25.46234 7.00586,-26.13086 -0.60772,0.0694 -10.09922,1.32615 -10.71094,1.40039 -0.18431,0.67843 -7.00977,26.14258 -7.00977,26.14258 -2.7236,10.13652 0.5231,17.40994 2.25781,20.92578 l 12.16016,-1.56445 0.66992,-0.75196 2.77539,-3.5957 1.16016,2.83789 0.45313,0.81641 12.29687,-1.60938 c 9.75041,-8.70046 10.90738,-12.89956 13.62695,-23.04102 0,0 6.88833,-25.62719 7.06836,-26.31054 z" />
    <path
       id="path73"
       style="opacity:0.98;fill:#d83818;fill-opacity:1;fill-rule:nonzero;stroke-width:0.643698"
       d="m 343.91406,182.13281 c -0.60337,0.0743 -10.672,1.41296 -11.27539,1.49219 -0.1843,0.68336 -10.92773,40.58984 -10.92773,40.58984 0,0 -4.52665,-38.30724 -4.65235,-38.54492 -0.30169,0.0397 -10.82711,1.41567 -11.44726,1.50977 -0.17998,0.67841 -17.02406,63.52372 -17.2168,64.20703 0.61175,-0.0892 10.66362,-1.41698 11.27539,-1.48633 0.18883,-0.69819 10.91016,-40.32812 10.91016,-40.32812 l 4.83984,38.24414 c 0.60341,-0.0546 10.66993,-1.39239 11.27735,-1.47657 0.18431,-0.6784 17.02808,-63.50881 17.21679,-64.20703 z" />
    <path
       id="path72"
       style="opacity:0.98;fill:#d83818;fill-opacity:1;fill-rule:nonzero;stroke-width:0.643698"
       d="m 459.97852,182.11719 c -0.62175,-0.0553 -1.28512,-0.0407 -1.98438,0.0527 l -12.4375,1.63086 c -5.58531,0.73288 -11.43461,6.14408 -13.03125,12.05664 l -7.24414,27.05274 c -1.59228,5.91755 1.66365,10.12047 7.26172,9.39257 0,0 21.09311,-2.77296 21.73437,-2.87695 0.17587,-0.63384 3.01726,-11.24584 3.19727,-11.89453 -0.64532,0.0892 -20.59961,2.72852 -20.59961,2.72852 l 1.71484,-6.41211 11.30469,-1.48438 c 5.58972,-0.74773 11.43521,-6.15037 13.02344,-12.0332 l 2.35351,-8.78125 c 1.38941,-5.16917 -0.94074,-9.04426 -5.29296,-9.43164 z m -6.30469,12.11133 -1.71875,6.38867 -10.18164,1.34179 0.0918,-0.35156 1.62696,-6.04101 z m -82.70703,0.10156 c -0.62175,-0.0553 -1.28317,-0.0388 -1.98242,0.0547 l -12.4375,1.6289 c -5.58535,0.73289 -11.43463,6.14604 -13.03126,12.0586 l -7.24414,27.05078 c -1.59226,5.91752 1.66361,10.12252 7.26172,9.39453 0,0 21.09314,-2.77298 21.73438,-2.87696 0.17607,-0.63384 3.01725,-11.24583 3.19726,-11.89453 -0.64531,0.0893 -20.59961,2.72852 -20.59961,2.72852 l 1.71485,-6.41211 11.30469,-1.48633 c 5.58966,-0.74771 11.43517,-6.15035 13.02343,-12.0332 l 2.35352,-8.7793 c 1.38944,-5.16917 -0.94271,-9.04619 -5.29492,-9.43359 z" />
    <path
       id="path71"
       style="opacity:0.98;fill:#d83818;fill-opacity:1;fill-rule:nonzero;stroke-width:0.643698"
       d="m 504.98828,175.54297 c -0.62936,0.0714 -21.68164,3.11133 -21.68164,3.11133 -5.59175,0.81508 -11.36064,6.29054 -12.87695,12.22851 l -2.40821,9.37891 a 7.1108925,11.354164 34.012316 0 0 5.66407,8.94922 l 3.07226,-0.44532 -0.008,0.0254 10.08203,-1.45508 -1.63672,6.41211 -10.16406,1.46875 c 8.9e-4,-0.004 0.002,-0.0117 0.004,-0.0176 l -10.72461,1.56055 -3.03321,11.74804 c 0.69128,0.01 2.15157,-0.26893 4.89649,-0.57422 l 17.08203,-2.39257 c 5.57676,-0.79302 11.371,-6.28827 12.88672,-12.2168 l 2.25781,-8.81055 c 1.50175,-5.90164 -1.81065,-10.06921 -7.38281,-9.27734 l -11.2832,1.63086 1.65624,-6.4375 c 0,0 19.90496,-2.85832 20.54688,-2.94727 0.16092,-0.64947 2.89479,-11.30117 3.05078,-11.93554 z" />
    <path
       id="path69"
       style="opacity:0.98;fill:#d83818;fill-opacity:1;fill-rule:nonzero;stroke-width:0.643698"
       d="m 532.37695,156.54492 -11.84765,1.60547 -3.90235,15.79102 -7.04101,0.95312 -3.11524,11.69922 7.27149,-0.97656 -9.14649,37.01953 11.84766,-1.60547 9.14453,-37.00586 4.29102,-0.57617 3.52148,-3.42188 2.53516,-8.69922 -7.46094,1.00977 z" />
    <path
       fill="#ffffff"
       fill-rule="nonzero"
       d="m 364.14491,188.81283 -12.43645,1.62918 c -5.58536,0.73288 -11.43485,6.14529 -13.03148,12.05787 l -7.24469,27.05217 c -1.59227,5.91751 1.66333,10.12166 7.26146,9.3937 0,0 21.09336,-2.77303 21.73461,-2.87702 0.17606,-0.63384 3.01696,-11.24576 3.19696,-11.89446 -0.64531,0.0892 -20.59895,2.72848 -20.59895,2.72848 l 1.71397,-6.41267 11.30512,-1.48562 c 5.58967,-0.74768 11.4348,-6.1502 13.02306,-12.03305 l 2.3549,-8.7797 c 1.58792,-5.90761 -1.68445,-10.12662 -7.27851,-9.3789 m -6.03789,18.44584 -10.18215,1.34195 0.0921,-0.35159 1.62583,-6.04132 10.18211,-1.33698 -1.71796,6.38789 z m -30.30777,-29.20629 c -0.18431,0.68335 -10.92802,40.59064 -10.92802,40.59064 0,0 -4.5254,-38.30782 -4.65109,-38.5455 -0.30169,0.0397 -10.82745,1.41624 -11.44759,1.51034 -0.17998,0.6784 -17.02452,63.52285 -17.21727,64.20622 0.61175,-0.0893 10.66382,-1.41623 11.27561,-1.4856 0.18862,-0.69817 10.91125,-40.32817 10.91125,-40.32817 l 4.83979,38.24342 c 0,0 0.17606,-0.66359 0,0 0.60341,-0.0546 10.66822,-1.39146 11.27563,-1.47566 0.18431,-0.67841 17.02892,-63.508 17.21763,-64.20624 -0.60336,0.0743 -10.67256,1.4113 -11.27594,1.49055 m 86.06233,4.05064 c -0.18882,0.69823 -7.05624,26.29453 -7.05624,26.29453 -1.94863,7.68538 -6.71269,13.08786 -6.71269,13.08786 0,0 -2.03641,-4.41707 0.0711,-12.20144 0,0 7.01873,-26.14599 7.06064,-26.29456 -0.60772,0.0842 -10.11511,1.31226 -10.71448,1.40139 -0.0375,0.14855 -7.04787,26.30938 -7.04787,26.30938 -2.02804,7.00197 -6.71669,13.04827 -6.71669,13.04827 0,0 -1.57989,-5.97203 0.0754,-12.17172 0,0 6.82161,-25.46266 7.00596,-26.13119 -0.60771,0.0694 -10.09833,1.32713 -10.71006,1.40137 -0.18431,0.67843 -7.01036,26.14105 -7.01036,26.14105 -2.72361,10.13651 0.52395,17.41085 2.25868,20.92669 l 12.15989,-1.56482 0.67043,-0.75268 2.77392,-3.59509 1.16049,2.83747 0.45256,0.81707 12.29832,-1.60939 c 9.75042,-8.70045 10.90689,-12.89968 13.62648,-23.04114 0,0 6.88867,-25.62602 7.0687,-26.30937 -0.61176,0.0844 -10.10672,1.33702 -10.71415,1.40632 m 39.2933,-5.50416 -12.43647,1.62917 c -5.58532,0.73291 -11.4348,6.14528 -13.03144,12.05785 l -7.24468,27.05215 c -1.59228,5.91753 1.66334,10.12169 7.26142,9.39378 0,0 21.0934,-2.77306 21.73468,-2.87706 0.17585,-0.63385 3.01693,-11.24577 3.19694,-11.89443 -0.64532,0.0892 -20.59898,2.72846 -20.59898,2.72846 l 1.71397,-6.41267 11.3051,-1.48557 c 5.58972,-0.74773 11.43487,-6.15026 13.0231,-12.03312 l 2.35488,-8.77968 c 1.5879,-5.90763 -1.68446,-10.12665 -7.27852,-9.3789 m -6.03786,18.44577 -10.18216,1.34199 0.0919,-0.35155 1.62583,-6.04133 10.18213,-1.33703 -1.71797,6.38792 z"
       id="path27303"
       style="opacity:0.98;fill:#ffffff;fill-opacity:1;stroke-width:0.643698"
       sodipodi:nodetypes="cccccccccccccccccccccccccccccccccccccccccccccccccccccccccccccccccccccccccc" />
    <path
       id="rect3-3"
       style="opacity:0.98;fill:#ffffff;fill-opacity:1;stroke-width:1.05212"
       d="m 533.08974,172.51839 -2.75993,9.9953 -24.70262,-0.0243 2.46305,-9.97403 z m -15.2837,-13.49979 11.2406,-0.001 -12.39447,55.12014 -11.2406,0.001 z"
       inkscape:path-effect="#path-effect21-5"
       inkscape:original-d="m 533.08974,172.51839 -2.75993,9.9953 -24.70262,-0.0243 2.46305,-9.97403 z m -15.2837,-13.49979 11.2406,-0.001 -12.39447,55.12014 -11.2406,0.001 z"
       transform="matrix(1.0540151,-0.14273015,-0.05205964,1.1378536,-21.807469,45.544522)"
       sodipodi:nodetypes="cccccccccc" />
    <path
       id="path22"
       style="opacity:0.98;fill:#ffffff;fill-opacity:1;fill-rule:nonzero;stroke-width:0.643698"
       d="m 500.15035,169.97169 c -0.62935,0.0714 -21.68164,3.11112 -21.68164,3.11112 -5.59174,0.81508 -11.36068,6.29083 -12.87698,12.22879 l -2.40886,9.37871 a 7.1108925,11.354164 34.012316 0 0 5.6643,8.94789 l 3.07101,-0.44505 -0.008,0.0252 10.0835,-1.45419 -1.63766,6.41117 -10.16276,1.47014 c 9e-4,-0.004 0.002,-0.0118 0.004,-0.0177 l -10.72586,1.56113 -3.03338,11.74803 c 0.69127,0.01 2.15211,-0.27003 4.89703,-0.57532 l 17.08203,-2.39233 c 5.57675,-0.793 11.37118,-6.28909 12.88689,-12.21763 l 2.25818,-8.81069 c 1.50174,-5.90164 -1.81103,-10.06744 -7.38319,-9.27557 l -11.28297,1.6307 1.6555,-6.43788 c 0,0 19.90568,-2.85852 20.5476,-2.94748 0.16093,-0.64946 2.89523,-11.30202 3.05122,-11.93641 z" />
    <rect
       style="opacity:0.98;fill:#d83818;fill-opacity:1;stroke:none;stroke-width:1.0813;stroke-opacity:1"
       id="rect84-8"
       width="102.86546"
       height="7.3696799"
       x="508.50327"
       y="313.63678"
       transform="matrix(0.99195253,-0.12661033,-0.25785642,0.96618325,0,0)" />
  </g>
  <g
     inkscape:groupmode="layer"
     id="layer3"
     inkscape:label="Layer 1">
    <rect
       style="display:inline;opacity:0.98;fill:#ffffff;fill-opacity:1;stroke:none;stroke-width:1.0813;stroke-opacity:1"
       id="rect84"
       width="102.86546"
       height="7.3696799"
       x="501.7482"
       y="307.24072"
       transform="matrix(0.99195253,-0.12661033,-0.25785642,0.96618325,0,0)" />
  </g>
</svg>
